<?xml version="1.0" encoding="UTF-8"?>
<svg id="Layer_1" data-name="Layer 1" xmlns="http://www.w3.org/2000/svg" viewBox="0 0 900 900">
    <defs>
        <style>
            .cls-1 {
            fill: #9f2c25;
            }

            .cls-2 {
            fill: #fff;
            }

            .cls-3 {
            fill: #273c8b;
            }
        </style>
    </defs>
    <g>
        <circle class="cls-2" cx="450" cy="450" r="311.76"/>
        <g>
            <path class="cls-3" d="M704.92,541.52c-7.2,17.91-16.5,32.79-27.32,46.61-43.75,55.89-99.77,94.89-169.05,109.64-99.52,21.19-188.35-1.42-260.5-76.41-32.53-33.8-51.12-75.1-60.44-120.62-14.08-68.78-4.93-134.36,31.96-194.41,38.68-62.97,96.26-98.73,169.07-109.85,59.55-9.09,116.03-.18,167.59,32.06,58.37,36.5,95.41,88.23,105.34,156.95,16.51,114.22-56.17,218.24-164.31,242.41-43.96,9.83-87.14,9.06-128.6-11.21-18.76-9.17-30.57-24.58-39.59-42.66-1.51-3.03-2.37-6.23-2.37-9.72.05-68.49.04-136.99.06-205.48,0-.68.18-1.36.27-2.04,2.4-1.08,3.69.9,5.1,1.9,11.03,7.82,21.88,15.89,32.98,23.6,3.16,2.19,4.27,4.57,4.25,8.36-.22,49.37-1.04,98.75-.12,148.09.65,34.55,16.4,50.17,48.35,57.19,35.03,7.7,67.87-.31,99.91-14.35,47.51-20.81,80.08-54.89,96.02-104.76,39.47-123.44-56.51-218.5-141.03-233.85-66.81-12.13-126.85,1.34-176.57,49.52-31.9,30.91-50.81,69.32-59.91,112.59-9.33,44.34-7.66,88.12,10.84,129.88,26.68,60.21,70.96,100.92,135.2,119.33,82.33,23.6,155.23,3.79,221.92-46.3,23.56-17.69,43.77-38.74,60.56-62.98,2.22-3.2,4.42-3.93,8.37-3.71,10.27.58,20.6.19,32.01.19Z"/>
            <path class="cls-3" d="M522.78,306.59c0,14.72-.24,29.24.14,43.74.12,4.57-2.78,5.67-5.6,7.3-31.11,17.94-62.17,35.97-93.43,53.63-4.48,2.53-5.8,5.25-5.78,10.15.17,52.27.1,104.54.1,156.82v8.71c-12.35-3.84-22.99-9.28-30.6-19.5-2.95-3.96-4.23-8.51-4.29-13.56-.4-36.52-.87-73.03-1.54-109.54-.04-2.07.69-7.35-4.13-5.66-1.15.4-.89-2.85-.9-4.42-.06-13.07.02-26.14-.08-39.2-.02-2.88.59-4.86,3.36-6.47,47.13-27.34,94.19-54.79,141.27-82.19.16-.09.45.05,1.47.21Z"/>
            <path class="cls-3" d="M429.45,587.13v-105.01c0-15.73.01-31.47-.01-47.2,0-2.67-.08-4.92,2.98-6.6,29.78-16.34,59.45-32.86,89.16-49.32.16-.09.46.09,1.19.26,0,15.31-.13,30.73.09,46.16.06,3.86-2.49,4.82-4.93,6.24-15.2,8.88-30.34,17.84-45.64,26.54-3.52,2-5.13,4.13-5.01,8.42.37,14.03,0,28.08.38,42.11.22,8.07.86,8.17,8.05,4.41,15.32-8.01,30.66-15.99,47.05-24.53,0,17.69-.03,34.27.04,50.86,0,2.37-1.26,3.37-3.13,4.26-29.7,14.26-59.38,28.56-90.22,43.4Z"/>
            <path class="cls-1" d="M326.71,302.28c14.18,10.95,27.11,20.92,40.03,30.9,1.58,1.22,2.61,2.65,2.59,4.85-.08,9.59-.03,19.18-.03,30.24-14.25-9.65-27.44-18.64-40.7-27.52-2-1.34-1.89-3.15-1.89-5.07,0-10.58,0-21.16,0-33.41Z"/>
        </g>
    </g>
</svg>
